<svg width="22" height="25" viewBox="0 0 22 25" fill="none" xmlns="http://www.w3.org/2000/svg">
<path d="M11 20.25L9.91379 21.2845L11 22.425L12.0862 21.2845L11 20.25ZM11 20.25C12.0862 21.2845 12.0865 21.2842 12.0867 21.2839L12.0874 21.2833L12.089 21.2815L12.0939 21.2764L12.1094 21.2599C12.1224 21.2461 12.1404 21.2268 12.1632 21.2021C12.2087 21.1529 12.2734 21.0822 12.3543 20.9917C12.5161 20.8109 12.7436 20.5503 13.015 20.2224C13.5564 19.5681 14.2792 18.6378 15.0044 17.5319C16.4156 15.3798 18 12.3195 18 9.25C18 5.38401 14.866 2.25 11 2.25C7.13401 2.25 4 5.38401 4 9.25C4 12.3195 5.58441 15.3798 6.99563 17.5319C7.7208 18.6378 8.44359 19.5681 8.98503 20.2224C9.25641 20.5503 9.48394 20.8109 9.64572 20.9917C9.72665 21.0822 9.79125 21.1529 9.83681 21.2021C9.85959 21.2268 9.87762 21.2461 9.89056 21.2599L9.90612 21.2764L9.91096 21.2815L9.91263 21.2833L9.91327 21.2839C9.91354 21.2842 9.91379 21.2845 11 20.25Z" stroke="#1ADDBA" stroke-width="3"/>
<path d="M11 11.1666C12.0585 11.1666 12.9167 10.3085 12.9167 9.24998C12.9167 8.19143 12.0585 7.33331 11 7.33331C9.94146 7.33331 9.08334 8.19143 9.08334 9.24998C9.08334 10.3085 9.94146 11.1666 11 11.1666Z" stroke="#1ADDBA" stroke-width="2"/>
</svg>
