<svg width="20" height="20" viewBox="0 0 28 20" fill="none" xmlns="http://www.w3.org/2000/svg">
<path d="M25.6667 0H2.33335C1.89133 0 1.4674 0.175595 1.15484 0.488155C0.842282 0.800716 0.666687 1.22464 0.666687 1.66667V18.3333C0.666687 18.7754 0.842282 19.1993 1.15484 19.5118C1.4674 19.8244 1.89133 20 2.33335 20H25.6667C26.1087 20 26.5326 19.8244 26.8452 19.5118C27.1578 19.1993 27.3334 18.7754 27.3334 18.3333V1.66667C27.3334 1.22464 27.1578 0.800716 26.8452 0.488155C26.5326 0.175595 26.1087 0 25.6667 0ZM24.3834 18.3333H3.71669L9.55002 12.3L8.35002 11.1417L2.33335 17.3667V2.93333L12.6917 13.2417C13.004 13.5521 13.4264 13.7263 13.8667 13.7263C14.307 13.7263 14.7294 13.5521 15.0417 13.2417L25.6667 2.675V17.2583L19.5334 11.125L18.3584 12.3L24.3834 18.3333ZM3.42502 1.66667H24.3167L13.8667 12.0583L3.42502 1.66667Z" fill="white" fill-opacity="0.5"/>
</svg>
