<svg width="60" height="60" viewBox="0 0 100 100" fill="none" xmlns="http://www.w3.org/2000/svg">
<path fill-rule="evenodd" clip-rule="evenodd" d="M8.33334 33.3334C8.33334 29.4738 9.20795 25.8185 10.7698 22.5549L28.9573 40.7424L40.7424 28.9573L22.5549 10.7698C25.8185 9.20797 29.4738 8.33337 33.3333 8.33337C47.1405 8.33337 58.3333 19.5263 58.3333 33.3334C58.3333 37.0017 57.5432 40.4856 56.1239 43.624L90.2525 77.7525C91.0335 78.5335 91.0335 79.7999 90.2525 80.5809L78.4976 92.3358C77.7165 93.1169 76.4502 93.1169 75.6691 92.3358L40.5955 57.2622C38.2973 57.9588 35.8591 58.3334 33.3333 58.3334C19.5262 58.3334 8.33334 47.1405 8.33334 33.3334Z" fill="#1ADDBA"/>
<path d="M10.7698 22.5549L11.8304 21.4943C11.4862 21.1501 10.9965 20.9943 10.5167 21.0764C10.0369 21.1585 9.62684 21.4683 9.41672 21.9074L10.7698 22.5549ZM28.9573 40.7424L27.8966 41.8031C28.1779 42.0844 28.5595 42.2424 28.9573 42.2424C29.3551 42.2424 29.7366 42.0844 30.018 41.8031L28.9573 40.7424ZM40.7424 28.9573L41.8031 30.018C42.0844 29.7367 42.2424 29.3551 42.2424 28.9573C42.2424 28.5595 42.0844 28.178 41.8031 27.8967L40.7424 28.9573ZM22.5549 10.7698L21.9074 9.41675C21.4683 9.62687 21.1585 10.037 21.0764 10.5167C20.9943 10.9965 21.15 11.4863 21.4942 11.8305L22.5549 10.7698ZM56.1239 43.624L54.7572 43.0059C54.5 43.5746 54.6219 44.2432 55.0633 44.6846L56.1239 43.624ZM75.6691 92.3358L74.6085 93.3965L75.6691 92.3358ZM40.5955 57.2622L41.6562 56.2016C41.2649 55.8103 40.69 55.6662 40.1605 55.8267L40.5955 57.2622ZM9.41672 21.9074C7.76023 25.3689 6.83334 29.245 6.83334 33.3334H9.83334C9.83334 29.7027 10.6557 26.2682 12.1228 23.2024L9.41672 21.9074ZM30.018 39.6818L11.8304 21.4943L9.70911 23.6156L27.8966 41.8031L30.018 39.6818ZM39.6817 27.8967L27.8966 39.6818L30.018 41.8031L41.8031 30.018L39.6817 27.8967ZM21.4942 11.8305L39.6817 30.018L41.8031 27.8967L23.6155 9.70914L21.4942 11.8305ZM33.3333 6.83337C29.2449 6.83337 25.3688 7.76025 21.9074 9.41675L23.2024 12.1228C26.2682 10.6557 29.7026 9.83337 33.3333 9.83337V6.83337ZM59.8333 33.3334C59.8333 18.6978 47.9689 6.83337 33.3333 6.83337V9.83337C46.312 9.83337 56.8333 20.3547 56.8333 33.3334H59.8333ZM57.4907 44.2421C58.9961 40.9133 59.8333 37.2191 59.8333 33.3334H56.8333C56.8333 36.7844 56.0904 40.0579 54.7572 43.0059L57.4907 44.2421ZM55.0633 44.6846L89.1918 78.8132L91.3131 76.6918L57.1846 42.5633L55.0633 44.6846ZM89.1918 78.8132C89.3871 79.0084 89.3871 79.325 89.1918 79.5203L91.3131 81.6416C92.68 80.2747 92.68 78.0587 91.3131 76.6918L89.1918 78.8132ZM89.1918 79.5203L77.4369 91.2752L79.5582 93.3965L91.3131 81.6416L89.1918 79.5203ZM77.4369 91.2752C77.2416 91.4704 76.925 91.4704 76.7298 91.2752L74.6085 93.3965C75.9753 94.7633 78.1914 94.7633 79.5582 93.3965L77.4369 91.2752ZM76.7298 91.2752L41.6562 56.2016L39.5349 58.3229L74.6085 93.3965L76.7298 91.2752ZM33.3333 59.8334C36.0081 59.8334 38.5929 59.4366 41.0306 58.6978L40.1605 55.8267C38.0017 56.481 35.71 56.8334 33.3333 56.8334V59.8334ZM6.83334 33.3334C6.83334 47.9689 18.6978 59.8334 33.3333 59.8334V56.8334C20.3547 56.8334 9.83334 46.3121 9.83334 33.3334H6.83334Z" fill="#1ADDBA"/>
</svg>
