<svg width="30" height="41" viewBox="0 0 40 51" fill="none" xmlns="http://www.w3.org/2000/svg">
<g id="Standard Collection 15">
<path id="Vector" d="M36.215 50.9091C35.6457 50.9086 35.0839 50.7798 34.5714 50.5318C34.0586 50.2839 33.6084 49.9232 33.2541 49.4768C32.1577 48.2907 23.6843 39.9518 18.492 34.8677C18.1327 34.5207 17.8454 34.1059 17.6468 33.647C17.4481 33.1884 17.342 32.6948 17.3346 32.1948C17.3271 31.6948 17.4185 31.1982 17.6034 30.7336C17.7883 30.2691 18.0631 29.8459 18.4119 29.4882C18.7607 29.1307 19.1768 28.8457 19.636 28.6498C20.0952 28.4539 20.5886 28.3511 21.0877 28.347C21.5868 28.343 22.0817 28.438 22.544 28.6264C23.0064 28.815 23.4268 29.0932 23.7814 29.4452C23.8184 29.4816 27.558 33.1436 31.2695 36.8018L32.4325 37.9484V20.1412C32.4325 13.2161 26.8555 7.58214 20 7.58214C13.1446 7.58214 7.56757 13.2161 7.56757 20.1412V47.1177C7.56757 48.1232 7.16891 49.0875 6.45932 49.7984C5.74973 50.5093 4.7873 50.9086 3.78377 50.9086C2.78025 50.9086 1.81784 50.5093 1.10824 49.7984C0.398648 49.0875 0 48.1232 0 47.1177V20.1412C0 9.03523 8.97193 0 20 0C31.028 0 40 9.03523 40 20.1412V47.1177C39.9995 48.1232 39.6007 49.0875 38.8909 49.7986C38.1811 50.5095 37.2186 50.9089 36.215 50.9091Z" fill="url(#paint0_linear_46_274)"/>
<path id="Vector_2" d="M20.0002 23.7852C22.3885 23.7852 24.3245 21.8455 24.3245 19.4526C24.3245 17.0597 22.3885 15.1199 20.0002 15.1199C17.6119 15.1199 15.6758 17.0597 15.6758 19.4526C15.6758 21.8455 17.6119 23.7852 20.0002 23.7852Z" fill="url(#paint1_linear_46_274)"/>
</g>
<defs>
<linearGradient id="paint0_linear_46_274" x1="20" y1="51.52" x2="20" y2="0.152725" gradientUnits="userSpaceOnUse">
<stop stop-color="#00C0F4"/>
<stop offset="1" stop-color="#12ECA0"/>
</linearGradient>
<linearGradient id="paint1_linear_46_274" x1="20.0002" y1="51.5061" x2="20.0002" y2="0.145992" gradientUnits="userSpaceOnUse">
<stop stop-color="#00C0F4"/>
<stop offset="1" stop-color="#12ECA0"/>
</linearGradient>
</defs>
</svg>
