<svg width="20" height="20" viewBox="0 0 30 30" fill="none" xmlns="http://www.w3.org/2000/svg">
<path d="M28.0629 21.6879C27.757 21.3621 26.6772 20.3988 24.692 19.1244C22.6922 17.8389 21.2174 17.0373 20.7944 16.8504C20.7571 16.8338 20.716 16.8278 20.6755 16.8328C20.6351 16.8379 20.5967 16.8539 20.5647 16.8791C19.8832 17.4105 18.736 18.3867 18.6744 18.4394C18.2772 18.7799 18.2772 18.7799 17.952 18.6738C17.3801 18.4863 15.6035 17.543 14.0555 15.9914C12.5074 14.4398 11.5154 12.6193 11.3279 12.048C11.2207 11.7223 11.2207 11.7223 11.5623 11.325C11.6151 11.2635 12.5918 10.1162 13.1233 9.43534C13.1485 9.40328 13.1645 9.36495 13.1695 9.32448C13.1746 9.28401 13.1685 9.24293 13.152 9.20565C12.9651 8.78202 12.1635 7.3078 10.8779 5.308C9.60177 3.32343 8.63967 2.24354 8.31388 1.93768C8.28399 1.90947 8.24704 1.88985 8.20692 1.88088C8.16681 1.8719 8.12502 1.87392 8.08595 1.88671C6.94717 2.27805 5.84842 2.77739 4.8047 3.37792C3.79714 3.96364 2.84324 4.63715 1.95412 5.39061C1.92308 5.417 1.89981 5.45134 1.88681 5.48994C1.8738 5.52855 1.87155 5.56997 1.88029 5.60975C2.00275 6.18046 2.5881 8.56288 4.40451 11.8629C6.25783 15.2308 7.5422 16.9564 10.2639 19.6687C12.9856 22.381 14.7656 23.7428 18.1371 25.5961C21.4371 27.4125 23.8207 27.9984 24.3903 28.1197C24.4301 28.1284 24.4716 28.1261 24.5103 28.1131C24.549 28.1001 24.5834 28.0769 24.61 28.0459C25.3633 27.1568 26.0366 26.2029 26.6221 25.1953C27.2225 24.1515 27.7218 23.0528 28.1133 21.9141C28.1258 21.8753 28.1278 21.8339 28.1189 21.7941C28.11 21.7543 28.0907 21.7177 28.0629 21.6879Z" fill="white" fill-opacity="0.5"/>
</svg>
