<svg width="45" height="45" viewBox="0 0 40 40" fill="none" xmlns="http://www.w3.org/2000/svg">
<path d="M22.4496 17.4496L21.0828 16.8315C20.8256 17.4003 20.9475 18.0689 21.3889 18.5102L22.4496 17.4496ZM9.02196 4.30791L8.37445 2.95487C7.93539 3.16498 7.62558 3.57507 7.54346 4.05484C7.46134 4.53461 7.61712 5.02439 7.9613 5.36857L9.02196 4.30791ZM16.297 11.5829L17.3576 12.6436C17.6389 12.3623 17.797 11.9807 17.797 11.5829C17.797 11.1851 17.6389 10.8036 17.3576 10.5223L16.297 11.5829ZM11.5829 16.297L10.5223 17.3576C11.108 17.9434 12.0578 17.9434 12.6436 17.3576L11.5829 16.297ZM4.30791 9.02196L5.36857 7.9613C5.02439 7.61712 4.53461 7.46134 4.05484 7.54346C3.57507 7.62558 3.16498 7.93539 2.95487 8.37445L4.30791 9.02196ZM16.2382 22.9049L17.2989 21.8442C16.9076 21.453 16.3327 21.3089 15.8031 21.4694L16.2382 22.9049ZM29.4191 36.0858L30.4798 35.0251L30.4798 35.0251L29.4191 36.0858ZM32.2476 36.0858L33.3082 37.1465L32.2476 36.0858ZM35.2525 30.2525L36.3131 29.1918L35.2525 30.2525ZM21.8333 13.3333C21.8333 14.5833 21.5645 15.7665 21.0828 16.8315L23.8163 18.0677C24.4701 16.6219 24.8333 15.018 24.8333 13.3333H21.8333ZM13.3333 4.83334C18.0278 4.83334 21.8333 8.63892 21.8333 13.3333H24.8333C24.8333 6.98207 19.6846 1.83334 13.3333 1.83334V4.83334ZM9.66946 5.66096C10.7771 5.1309 12.0184 4.83334 13.3333 4.83334V1.83334C11.5607 1.83334 9.87773 2.23546 8.37445 2.95487L9.66946 5.66096ZM17.3576 10.5223L10.0826 3.24725L7.9613 5.36857L15.2363 12.6436L17.3576 10.5223ZM12.6436 17.3576L17.3576 12.6436L15.2363 10.5223L10.5223 15.2363L12.6436 17.3576ZM3.24725 10.0826L10.5223 17.3576L12.6436 15.2363L5.36857 7.9613L3.24725 10.0826ZM4.83334 13.3333C4.83334 12.0184 5.1309 10.7771 5.66096 9.66946L2.95487 8.37445C2.23546 9.87774 1.83334 11.5607 1.83334 13.3333H4.83334ZM13.3333 21.8333C8.63892 21.8333 4.83334 18.0278 4.83334 13.3333H1.83334C1.83334 19.6846 6.98207 24.8333 13.3333 24.8333V21.8333ZM15.8031 21.4694C15.0234 21.7057 14.1946 21.8333 13.3333 21.8333V24.8333C14.4927 24.8333 15.6145 24.6613 16.6733 24.3404L15.8031 21.4694ZM30.4798 35.0251L17.2989 21.8442L15.1776 23.9656L28.3585 37.1465L30.4798 35.0251ZM31.1869 35.0251C30.9916 35.2204 30.675 35.2204 30.4798 35.0251L28.3585 37.1465C29.7253 38.5133 31.9414 38.5133 33.3082 37.1465L31.1869 35.0251ZM34.1918 32.0202L31.1869 35.0251L33.3082 37.1465L36.3131 34.1415L34.1918 32.0202ZM34.1918 31.3131C34.3871 31.5084 34.3871 31.825 34.1918 32.0202L36.3131 34.1415C37.68 32.7747 37.68 30.5586 36.3131 29.1918L34.1918 31.3131ZM21.3889 18.5102L34.1918 31.3131L36.3131 29.1918L23.5102 16.3889L21.3889 18.5102Z" fill="#1ADDBA"/>
</svg>
